<svg xmlns:ev="http://www.w3.org/2001/xml-events" xmlns:xlink="http://www.w3.org/1999/xlink" viewBox="0 0 2255 1597" xmlns="http://www.w3.org/2000/svg" height="1597" width="2255"><defs/><g id="page1" transform="translate(5.5,5.5)"><rect fill="none" y="0" height="1587" x="0" width="2245"/><g id="shape1" transform="translate(296.500000,69.000000)"><path stroke-width="1" stroke="#5a7422" fill="#73922e" d="M22.0,44.0L78.0,44.0L78.0,44.0C90.2,44.0,100.0,34.2,100.0,22.0C100.0,9.8,90.2,.0,78.0,.0L22.0,.0L22.0,.0C9.8,.0,.0,9.8,.0,22.0C.0,34.2,9.8,44.0,22.0,44.0z" fill-rule="nonzero"/><text style="fill:#ffffff;font-family:微软雅黑,PingFang SC,Mircrosoft YaHei,Arial;font-size:10.00pt" xml:space="preserve"><tspan y="27.5" style="font-family:微软雅黑,PingFang SC,Mircrosoft YaHei,Arial" x="37.0">开始</tspan></text></g><g id="shape2" transform="translate(268.000000,140.000000)"><path stroke-width="1" stroke="#503588" fill="#6744ab" d="M157.0,60.0L157.0,.0L.0,.0L.0,60.0L157.0,60.0z" fill-rule="nonzero"/><text style="fill:#ffffff;font-family:微软雅黑,PingFang SC,Mircrosoft YaHei,Arial;font-size:10.00pt" xml:space="preserve"><tspan y="35.5" style="font-family:微软雅黑,PingFang SC,Mircrosoft YaHei,Arial" x="34.0">Linux 系统启动</tspan></text></g><g id="shape3" transform="translate(346.500000,113.000000)"><path stroke-width="1" stroke="#3266b4" fill="none" d="M.0,.0L.0,21.0"/><path stroke-width="1" stroke="#3266b4" fill="#3266b4" stroke-linecap="round" d="M3.0,21.0L.0,27.0L-3.0,21.0L3.0,21.0"/></g><g id="shape4" transform="translate(478.375000,140.000000)"><path stroke-width="1" stroke="#1e3f74" fill="#295192" d="M7.5,.0L119.0,.0L119.0,.0C114.2,8.9,111.5,19.2,111.5,30.0C111.5,40.9,114.2,51.1,119.0,60.0L7.5,60.0L7.5,60.0C2.7,51.1,.0,40.8,.0,30.0C.0,19.1,2.7,8.9,7.5,.0z" fill-rule="nonzero"/><text style="fill:#ffffff;font-family:微软雅黑,PingFang SC,Mircrosoft YaHei,Arial;font-size:10.00pt" xml:space="preserve"><tspan y="35.5" style="font-family:微软雅黑,PingFang SC,Mircrosoft YaHei,Arial" x="17.0">Shell 后台启动</tspan></text></g><g id="shape5" transform="translate(478.375000,170.000000)"><path stroke-width="1" stroke="#3266b4" fill="none" d="M.0,.0L-47.4,.0"/><path stroke-width="1" stroke="#3266b4" fill="#3266b4" stroke-linecap="round" d="M-47.4,3.0L-53.4,.0L-47.4,-3.0L-47.4,3.0"/></g><g id="shape6" transform="translate(650.750000,133.500000)"><path stroke-width="1" stroke="#1e3f74" fill="#295192" d="M9.1,.0L286.5,.0L286.5,.0C280.7,10.9,277.4,23.3,277.4,36.5C277.4,49.7,280.7,62.1,286.5,73.0L9.1,73.0L9.1,73.0C3.3,62.1,.0,49.7,.0,36.5C.0,23.3,3.3,10.9,9.1,.0z" fill-rule="nonzero"/><text style="fill:#ffffff;font-family:微软雅黑,PingFang SC,Mircrosoft YaHei,Arial;font-size:10.00pt" xml:space="preserve"><tspan y="42.0" style="font-family:微软雅黑,PingFang SC,Mircrosoft YaHei,Arial" x="15.3">Shell 是用户和 Linux 操作系统交互的界面。</tspan></text></g><g id="shape7" transform="translate(650.750000,170.000000)"><path stroke-width="1" stroke="#3266b4" fill="none" d="M.0,.0L-54.9,.0"/><path stroke-width="1" stroke="#3266b4" fill="#3266b4" stroke-linecap="round" d="M-54.9,3.0L-60.9,.0L-54.9,-3.0L-54.9,3.0"/></g><g id="shape8" transform="translate(990.625000,133.500000)"><path stroke-width="1" stroke="#1e3f74" fill="#295192" d="M9.1,.0L308.0,.0L308.0,.0C302.2,10.9,298.9,23.3,298.9,36.5C298.9,49.7,302.2,62.1,308.0,73.0L9.1,73.0L9.1,73.0C3.3,62.1,.0,49.7,.0,36.5C.0,23.3,3.3,10.9,9.1,.0z" fill-rule="nonzero"/><text style="fill:#ffffff;font-family:微软雅黑,PingFang SC,Mircrosoft YaHei,Arial;font-size:10.00pt" xml:space="preserve"><tspan y="42.0" style="font-family:微软雅黑,PingFang SC,Mircrosoft YaHei,Arial" x="20.5">Shell 中内部自带了很多命令，被称为内部命令</tspan></text></g><g id="shape9" transform="translate(990.625000,170.000000)"><path stroke-width="1" stroke="#3266b4" fill="none" d="M.0,.0L-56.5,.0"/><path stroke-width="1" stroke="#3266b4" fill="#3266b4" stroke-linecap="round" d="M-56.5,3.0L-62.5,.0L-56.5,-3.0L-56.5,3.0"/></g><g id="shape10" transform="translate(268.000000,230.500000)"><path stroke-width="1" stroke="#503588" fill="#6744ab" d="M157.0,60.0L157.0,.0L.0,.0L.0,60.0L157.0,60.0z" fill-rule="nonzero"/><text style="fill:#ffffff;font-family:微软雅黑,PingFang SC,Mircrosoft YaHei,Arial;font-size:10.00pt" xml:space="preserve"><tspan y="35.5" style="font-family:微软雅黑,PingFang SC,Mircrosoft YaHei,Arial" x="19.0">用户登录到 Linux 中</tspan></text></g><g id="shape11" transform="translate(346.500000,200.000000)"><path stroke-width="1" stroke="#3266b4" fill="none" d="M.0,.0L.0,24.5"/><path stroke-width="1" stroke="#3266b4" fill="#3266b4" stroke-linecap="round" d="M3.0,24.5L.0,30.5L-3.0,24.5L3.0,24.5"/></g><g id="shape12" transform="translate(268.000000,321.000000)"><path stroke-width="1" stroke="#503588" fill="#6744ab" d="M157.0,60.0L157.0,.0L.0,.0L.0,60.0L157.0,60.0z" fill-rule="nonzero"/><text style="fill:#ffffff;font-family:微软雅黑,PingFang SC,Mircrosoft YaHei,Arial;font-size:10.00pt" xml:space="preserve"><tspan y="35.5" style="font-family:微软雅黑,PingFang SC,Mircrosoft YaHei,Arial" x="39.5">用户输入命令</tspan></text></g><g id="shape13" transform="translate(346.500000,290.500000)"><path stroke-width="1" stroke="#3266b4" fill="none" d="M.0,.0L.0,24.5"/><path stroke-width="1" stroke="#3266b4" fill="#3266b4" stroke-linecap="round" d="M3.0,24.5L.0,30.5L-3.0,24.5L3.0,24.5"/></g><g id="shape14" transform="translate(255.500000,410.562500)"><path stroke-width="1" stroke="#95433a" fill="#bc564b" d="M91.0,130.9L182.0,65.4L91.0,.0L.0,65.4L91.0,130.9z" fill-rule="nonzero"/><text style="fill:#ffffff;font-family:微软雅黑,PingFang SC,Mircrosoft YaHei,Arial;font-size:10.00pt" xml:space="preserve"><tspan y="61.4" style="font-family:微软雅黑,PingFang SC,Mircrosoft YaHei,Arial" x="35.5">Shell 判断是内部命</tspan><tspan y="80.4" style="font-family:微软雅黑,PingFang SC,Mircrosoft YaHei,Arial" x="45.5">令还是外部命令</tspan></text></g><g id="shape15" transform="translate(57.000000,446.000000)"><path stroke-width="1" stroke="#503588" fill="#6744ab" d="M157.0,60.0L157.0,.0L.0,.0L.0,60.0L157.0,60.0z" fill-rule="nonzero"/><text style="fill:#ffffff;font-family:微软雅黑,PingFang SC,Mircrosoft YaHei,Arial;font-size:10.00pt" xml:space="preserve"><tspan y="35.5" style="font-family:微软雅黑,PingFang SC,Mircrosoft YaHei,Arial" x="36.0">Shell 直接处理</tspan></text></g><g id="shape16" transform="translate(255.500000,594.000000)"><path stroke-width="1" stroke="#503588" fill="#6744ab" d="M182.0,60.0L182.0,.0L.0,.0L.0,60.0L182.0,60.0z" fill-rule="nonzero"/><text style="fill:#ffffff;font-family:微软雅黑,PingFang SC,Mircrosoft YaHei,Arial;font-size:10.00pt" xml:space="preserve"><tspan y="35.5" style="font-family:微软雅黑,PingFang SC,Mircrosoft YaHei,Arial" x="16.0">Shell 对外部命令进行解析</tspan></text></g><g id="shape17" transform="translate(346.500000,541.437500)"><path stroke-width="1" stroke="#3266b4" fill="none" d="M.0,.0L.0,46.0"/><path stroke-width="1" stroke="#3266b4" fill="#3266b4" stroke-linecap="round" d="M3.0,46.0L.0,52.0L-3.0,46.0L3.0,46.0"/><rect fill="#ffffff" y="16.5" height="19.0" x="-38.0" width="78.0"/><text style="fill:#191919;font-family:微软雅黑,PingFang SC,Mircrosoft YaHei,Arial;font-size:10.00pt" xml:space="preserve"><tspan y="31.5" style="font-family:微软雅黑,PingFang SC,Mircrosoft YaHei,Arial" x="-38.0">不是内部命令</tspan></text></g><g id="shape18" transform="translate(236.500000,677.000000)"><path stroke-width="1" stroke="#503588" fill="#6744ab" d="M220.0,60.0L220.0,.0L.0,.0L.0,60.0L220.0,60.0z" fill-rule="nonzero"/><text style="fill:#ffffff;font-family:微软雅黑,PingFang SC,Mircrosoft YaHei,Arial;font-size:10.00pt" xml:space="preserve"><tspan y="35.5" style="font-family:微软雅黑,PingFang SC,Mircrosoft YaHei,Arial" x="5.5">Shell  去 PATH 环境变量中查找命令</tspan></text></g><g id="shape19" transform="translate(524.750000,641.562500)"><path stroke-width="1" stroke="#95433a" fill="#bc564b" d="M91.0,130.9L182.0,65.4L91.0,.0L.0,65.4L91.0,130.9z" fill-rule="nonzero"/><text style="fill:#ffffff;font-family:微软雅黑,PingFang SC,Mircrosoft YaHei,Arial;font-size:10.00pt" xml:space="preserve"><tspan y="61.4" style="font-family:微软雅黑,PingFang SC,Mircrosoft YaHei,Arial" x="35.5">Shell 判断是内部命</tspan><tspan y="80.4" style="font-family:微软雅黑,PingFang SC,Mircrosoft YaHei,Arial" x="45.5">令还是外部命令</tspan></text></g><g id="shape20" transform="translate(763.000000,677.000000)"><path stroke-width="1" stroke="#503588" fill="#6744ab" d="M242.0,60.0L242.0,.0L.0,.0L.0,60.0L242.0,60.0z" fill-rule="nonzero"/><text style="fill:#ffffff;font-family:微软雅黑,PingFang SC,Mircrosoft YaHei,Arial;font-size:10.00pt" xml:space="preserve"><tspan y="35.5" style="font-family:微软雅黑,PingFang SC,Mircrosoft YaHei,Arial" x="49.5">直接报错，该命令不存在</tspan></text></g><g id="shape21" transform="translate(524.750000,815.437500)"><path stroke-width="1" stroke="#95433a" fill="#bc564b" d="M91.0,129.6L182.0,64.8L91.0,.0L.0,64.8L91.0,129.6z" fill-rule="nonzero"/><text style="fill:#ffffff;font-family:微软雅黑,PingFang SC,Mircrosoft YaHei,Arial;font-size:10.00pt" xml:space="preserve"><tspan y="51.3" style="font-family:微软雅黑,PingFang SC,Mircrosoft YaHei,Arial" x="35.5">Shell 判断当前用户</tspan><tspan y="70.3" style="font-family:微软雅黑,PingFang SC,Mircrosoft YaHei,Arial" x="39.0">是否有权限执行该</tspan><tspan y="89.3" style="font-family:微软雅黑,PingFang SC,Mircrosoft YaHei,Arial" x="78.0">命令</tspan></text></g><g id="shape22" transform="translate(615.750000,772.437500)"><path stroke-width="1" stroke="#3266b4" fill="none" d="M.0,.0L.0,36.4"/><path stroke-width="1" stroke="#3266b4" fill="#3266b4" stroke-linecap="round" d="M3.0,36.4L.0,42.4L-3.0,36.4L3.0,36.4"/><rect fill="#ffffff" y="11.7" height="19.0" x="-12.0" width="26.0"/><text style="fill:#191919;font-family:微软雅黑,PingFang SC,Mircrosoft YaHei,Arial;font-size:10.00pt" xml:space="preserve"><tspan y="26.7" style="font-family:微软雅黑,PingFang SC,Mircrosoft YaHei,Arial" x="-12.0">存在</tspan></text></g><g id="shape23" transform="translate(763.000000,850.218750)"><path stroke-width="1" stroke="#503588" fill="#6744ab" d="M242.0,60.0L242.0,.0L.0,.0L.0,60.0L242.0,60.0z" fill-rule="nonzero"/><text style="fill:#ffffff;font-family:微软雅黑,PingFang SC,Mircrosoft YaHei,Arial;font-size:10.00pt" xml:space="preserve"><tspan y="35.5" style="font-family:微软雅黑,PingFang SC,Mircrosoft YaHei,Arial" x="56.0">直接报错，权限不存在</tspan></text></g><g id="shape24" transform="translate(505.750000,988.000000)"><path stroke-width="1" stroke="#503588" fill="#6744ab" d="M220.0,60.0L220.0,.0L.0,.0L.0,60.0L220.0,60.0z" fill-rule="nonzero"/><text style="fill:#ffffff;font-family:微软雅黑,PingFang SC,Mircrosoft YaHei,Arial;font-size:10.00pt" xml:space="preserve"><tspan y="35.5" style="font-family:微软雅黑,PingFang SC,Mircrosoft YaHei,Arial" x="84.0">执行命令</tspan></text></g><g id="shape25" transform="translate(615.750000,945.000000)"><path stroke-width="1" stroke="#3266b4" fill="none" d="M.0,.0L.0,36.0"/><path stroke-width="1" stroke="#3266b4" fill="#3266b4" stroke-linecap="round" d="M3.0,36.0L.0,42.0L-3.0,36.0L3.0,36.0"/><rect fill="#ffffff" y="11.5" height="19.0" x="-5.5" width="13.0"/><text style="fill:#191919;font-family:微软雅黑,PingFang SC,Mircrosoft YaHei,Arial;font-size:10.00pt" xml:space="preserve"><tspan y="26.5" style="font-family:微软雅黑,PingFang SC,Mircrosoft YaHei,Arial" x="-5.5">是</tspan></text></g><g id="shape26" transform="translate(524.750000,1091.000000)"><path stroke-width="1" stroke="#95433a" fill="#bc564b" d="M91.0,129.2L182.0,64.6L91.0,.0L.0,64.6L91.0,129.2z" fill-rule="nonzero"/><text style="fill:#ffffff;font-family:微软雅黑,PingFang SC,Mircrosoft YaHei,Arial;font-size:10.00pt" xml:space="preserve"><tspan y="70.1" style="font-family:微软雅黑,PingFang SC,Mircrosoft YaHei,Arial" x="39.0">是否涉及到重定向</tspan></text></g><g id="shape27" transform="translate(615.750000,1048.000000)"><path stroke-width="1" stroke="#3266b4" fill="none" d="M.0,.0L.0,37.0"/><path stroke-width="1" stroke="#3266b4" fill="#3266b4" stroke-linecap="round" d="M3.0,37.0L.0,43.0L-3.0,37.0L3.0,37.0"/></g><g id="shape28" transform="translate(763.000000,1125.593750)"><path stroke-width="1" stroke="#503588" fill="#6744ab" d="M242.0,60.0L242.0,.0L.0,.0L.0,60.0L242.0,60.0z" fill-rule="nonzero"/><text style="fill:#ffffff;font-family:微软雅黑,PingFang SC,Mircrosoft YaHei,Arial;font-size:10.00pt" xml:space="preserve"><tspan y="35.5" style="font-family:微软雅黑,PingFang SC,Mircrosoft YaHei,Arial" x="10.5">输出可能会被发送到命令或其他命令中</tspan></text></g><g id="shape29" transform="translate(505.750000,1263.187500)"><path stroke-width="1" stroke="#503588" fill="#6744ab" d="M220.0,60.0L220.0,.0L.0,.0L.0,60.0L220.0,60.0z" fill-rule="nonzero"/><text style="fill:#ffffff;font-family:微软雅黑,PingFang SC,Mircrosoft YaHei,Arial;font-size:10.00pt" xml:space="preserve"><tspan y="26.0" style="font-family:微软雅黑,PingFang SC,Mircrosoft YaHei,Arial" x="12.5">其输出（如果有的话）将被返回到 </tspan><tspan y="45.0" style="font-family:微软雅黑,PingFang SC,Mircrosoft YaHei,Arial" x="30.5">Shell，通常会显示在终端上</tspan></text></g><g id="shape30" transform="translate(615.750000,1220.187500)"><path stroke-width="1" stroke="#3266b4" fill="none" d="M.0,.0L.0,37.0"/><path stroke-width="1" stroke="#3266b4" fill="#3266b4" stroke-linecap="round" d="M3.0,37.0L.0,43.0L-3.0,37.0L3.0,37.0"/><rect fill="#ffffff" y="12.0" height="19.0" x="-5.5" width="13.0"/><text style="fill:#191919;font-family:微软雅黑,PingFang SC,Mircrosoft YaHei,Arial;font-size:10.00pt" xml:space="preserve"><tspan y="27.0" style="font-family:微软雅黑,PingFang SC,Mircrosoft YaHei,Arial" x="-5.5">否</tspan></text></g><g id="shape31" transform="translate(505.750000,1366.187500)"><path stroke-width="1" stroke="#503588" fill="#6744ab" d="M220.0,92.0L220.0,.0L.0,.0L.0,92.0L220.0,92.0z" fill-rule="nonzero"/><text style="fill:#ffffff;font-family:微软雅黑,PingFang SC,Mircrosoft YaHei,Arial;font-size:10.00pt" xml:space="preserve"><tspan y="23.0" style="font-family:微软雅黑,PingFang SC,Mircrosoft YaHei,Arial" x="6.0">执行完毕后，命令进程结束，并将退</tspan><tspan y="42.0" style="font-family:微软雅黑,PingFang SC,Mircrosoft YaHei,Arial" x="48.0">出状态返回给 Shell。</tspan><tspan y="61.0" style="font-family:微软雅黑,PingFang SC,Mircrosoft YaHei,Arial" x="9.0">Shell 接着返回到等待状态，等待下</tspan><tspan y="80.0" style="font-family:微软雅黑,PingFang SC,Mircrosoft YaHei,Arial" x="58.0">一个命令的输入。</tspan></text></g><g id="shape32" transform="translate(615.750000,1323.187500)"><path stroke-width="1" stroke="#3266b4" fill="none" d="M.0,.0L.0,37.0"/><path stroke-width="1" stroke="#3266b4" fill="#3266b4" stroke-linecap="round" d="M3.0,37.0L.0,43.0L-3.0,37.0L3.0,37.0"/></g><g id="shape33" transform="translate(565.750000,1487.000000)"><path stroke-width="1" stroke="#5a7422" fill="#73922e" d="M22.0,44.0L78.0,44.0L78.0,44.0C90.2,44.0,100.0,34.2,100.0,22.0C100.0,9.8,90.2,.0,78.0,.0L22.0,.0L22.0,.0C9.8,.0,.0,9.8,.0,22.0C.0,34.2,9.8,44.0,22.0,44.0z" fill-rule="nonzero"/><text style="fill:#ffffff;font-family:微软雅黑,PingFang SC,Mircrosoft YaHei,Arial;font-size:10.00pt" xml:space="preserve"><tspan y="27.5" style="font-family:微软雅黑,PingFang SC,Mircrosoft YaHei,Arial" x="37.0">结束</tspan></text></g><g id="shape34" transform="translate(615.750000,1458.187500)"><path stroke-width="1" stroke="#3266b4" fill="none" d="M.0,.0L.0,22.8"/><path stroke-width="1" stroke="#3266b4" fill="#3266b4" stroke-linecap="round" d="M3.0,22.8L.0,28.8L-3.0,22.8L3.0,22.8"/></g><g id="shape35" transform="translate(346.500000,381.000000)"><path stroke-width="1" stroke="#3266b4" fill="none" d="M.0,.0L.0,23.6"/><path stroke-width="1" stroke="#3266b4" fill="#3266b4" stroke-linecap="round" d="M3.0,23.6L.0,29.6L-3.0,23.6L3.0,23.6"/></g><g id="shape36" transform="translate(255.500000,476.000000)"><path stroke-width="1" stroke="#3266b4" fill="none" d="M.0,.0L-35.5,.0"/><path stroke-width="1" stroke="#3266b4" fill="#3266b4" stroke-linecap="round" d="M-35.5,3.0L-41.5,.0L-35.5,-3.0L-35.5,3.0"/><rect fill="#ffffff" y="-9.5" height="19.0" x="-26.2" width="13.0"/><text style="fill:#191919;font-family:微软雅黑,PingFang SC,Mircrosoft YaHei,Arial;font-size:10.00pt" xml:space="preserve"><tspan y="5.5" style="font-family:微软雅黑,PingFang SC,Mircrosoft YaHei,Arial" x="-26.2">是</tspan></text></g><g id="shape37" transform="translate(346.500000,654.000000)"><path stroke-width="1" stroke="#3266b4" fill="none" d="M.0,.0L.0,17.0"/><path stroke-width="1" stroke="#3266b4" fill="#3266b4" stroke-linecap="round" d="M3.0,17.0L.0,23.0L-3.0,17.0L3.0,17.0"/></g><g id="shape38" transform="translate(456.500000,707.000000)"><path stroke-width="1" stroke="#3266b4" fill="none" d="M.0,.0L62.3,.0"/><path stroke-width="1" stroke="#3266b4" fill="#3266b4" stroke-linecap="round" d="M62.3,-3.0L68.3,.0L62.3,3.0L62.3,-3.0"/></g><g id="shape39" transform="translate(706.750000,707.000000)"><path stroke-width="1" stroke="#3266b4" fill="none" d="M.0,.0L50.3,.0"/><path stroke-width="1" stroke="#3266b4" fill="#3266b4" stroke-linecap="round" d="M50.3,-3.0L56.3,.0L50.3,3.0L50.3,-3.0"/><rect fill="#ffffff" y="-9.5" height="19.0" x="9.6" width="39.0"/><text style="fill:#191919;font-family:微软雅黑,PingFang SC,Mircrosoft YaHei,Arial;font-size:10.00pt" xml:space="preserve"><tspan y="5.5" style="font-family:微软雅黑,PingFang SC,Mircrosoft YaHei,Arial" x="9.6">不存在</tspan></text></g><g id="shape40" transform="translate(706.750000,880.218750)"><path stroke-width="1" stroke="#3266b4" fill="none" d="M.0,.0L50.3,.0"/><path stroke-width="1" stroke="#3266b4" fill="#3266b4" stroke-linecap="round" d="M50.3,-3.0L56.3,.0L50.3,3.0L50.3,-3.0"/><rect fill="#ffffff" y="-9.5" height="19.0" x="22.6" width="13.0"/><text style="fill:#191919;font-family:微软雅黑,PingFang SC,Mircrosoft YaHei,Arial;font-size:10.00pt" xml:space="preserve"><tspan y="5.5" style="font-family:微软雅黑,PingFang SC,Mircrosoft YaHei,Arial" x="22.6">否</tspan></text></g><g id="shape41" transform="translate(706.750000,1155.593750)"><path stroke-width="1" stroke="#3266b4" fill="none" d="M.0,.0L51.0,.0"/><path stroke-width="1" stroke="#3266b4" fill="#3266b4" stroke-linecap="round" d="M51.0,-3.0L57.0,.0L51.0,3.0L51.0,-3.0"/><rect fill="#ffffff" y="-9.5" height="19.0" x="23.0" width="13.0"/><text style="fill:#191919;font-family:微软雅黑,PingFang SC,Mircrosoft YaHei,Arial;font-size:10.00pt" xml:space="preserve"><tspan y="5.5" style="font-family:微软雅黑,PingFang SC,Mircrosoft YaHei,Arial" x="23.0">是</tspan></text></g></g></svg>